PontanoSans-Bold.ufo
<glyph name="dollar" format="1">
  <advance width="1216"/>
  <unicode hex="0024"/>
  <outline>
    <component base="S"/>
    <contour>
      <point x="581" y="1672" type="line"/>
      <point x="713" y="1672" type="line"/>
      <point x="713" y="-204" type="line"/>
      <point x="581" y="-204" type="line"/>
    </contour>
  </outline>
</glyph>
<glyph name="ampersand" format="1">
  <advance width="1430"/>
  <unicode hex="0026"/>
  <outline>
    <contour>
      <point x="592" y="1008" type="line" smooth="yes"/>
      <point x="534" y="1073"/>
      <point x="510" y="1141"/>
      <point x="518" y="1208" type="curve" smooth="yes"/>
      <point x="524" y="1262"/>
      <point x="579" y="1316"/>
      <point x="678" y="1316" type="curve" smooth="yes"/>
      <point x="771" y="1316"/>
      <point x="825" y="1260"/>
      <point x="831" y="1205" type="curve" smooth="yes"/>
      <point x="838" y="1143"/>
      <point x="824" y="1039"/>
      <point x="525" y="923" type="curve" smooth="yes"/>
      <point x="229" y="808"/>
      <point x="102" y="661"/>
      <point x="98" y="420" type="curve" smooth="yes"/>
      <point x="94" y="173"/>
      <point x="292" y="-25"/>
      <point x="582" y="-25" type="curve" smooth="yes"/>
      <point x="857" y="-25"/>
      <point x="1236" y="91"/>
      <point x="1332" y="777" type="curve"/>
      <point x="1150" y="803" type="line"/>
      <point x="1076" y="298"/>
      <point x="851" y="151"/>
      <point x="615" y="151" type="curve" smooth="yes"/>
      <point x="403" y="151"/>
      <point x="321" y="270"/>
      <point x="316" y="421" type="curve" smooth="yes"/>
      <point x="311" y="560"/>
      <point x="371" y="677"/>
      <point x="637" y="804" type="curve" smooth="yes"/>
      <point x="947" y="952"/>
      <point x="1023" y="1038"/>
      <point x="1023" y="1211" type="curve" smooth="yes"/>
      <point x="1023" y="1393"/>
      <point x="861" y="1491"/>
      <point x="673" y="1491" type="curve" smooth="yes"/>
      <point x="489" y="1491"/>
      <point x="327" y="1392"/>
      <point x="316" y="1210" type="curve" smooth="yes"/>
      <point x="310" y="1114"/>
      <point x="333" y="1036"/>
      <point x="405" y="955" type="curve" smooth="yes"/>
      <point x="1278" y="-35" type="line"/>
      <point x="1414" y="87" type="line"/>
    </contour>
  </outline>
</glyph>
<glyph name="parenleft" format="1">
  <advance width="602"/>
  <unicode hex="0028"/>
  <outline>
    <contour>
      <point x="-5" y="703" type="curve" smooth="yes"/>
      <point x="-5" y="164"/>
      <point x="232" y="-112"/>
      <point x="523" y="-181" type="curve"/>
      <point x="564" y="-54" type="line"/>
      <point x="338" y="19"/>
      <point x="222" y="289"/>
      <point x="222" y="703" type="curve" smooth="yes"/>
      <point x="222" y="1117"/>
      <point x="338" y="1387"/>
      <point x="564" y="1460" type="curve"/>
      <point x="523" y="1587" type="line"/>
      <point x="232" y="1518"/>
      <point x="-5" y="1242"/>
    </contour>
  </outline>
</glyph>
<glyph name="parenright" format="1">
  <advance width="602"/>
  <unicode hex="0029"/>
  <outline>
    <contour>
      <point x="564" y="703" type="curve" smooth="yes"/>
      <point x="564" y="1242"/>
      <point x="327" y="1518"/>
      <point x="36" y="1587" type="curve"/>
      <point x="-5" y="1460" type="line"/>
      <point x="221" y="1387"/>
      <point x="337" y="1117"/>
      <point x="337" y="703" type="curve" smooth="yes"/>
      <point x="337" y="289"/>
      <point x="221" y="19"/>
      <point x="-5" y="-54" type="curve"/>
      <point x="36" y="-181" type="line"/>
      <point x="327" y="-112"/>
      <point x="564" y="164"/>
    </contour>
  </outline>
</glyph>
<glyph name="asterisk" format="1">
  <advance width="826"/>
  <unicode hex="002A"/>
  <outline>
    <contour>
      <point x="474" y="753" type="line"/>
      <point x="361" y="753" type="line"/>
      <point x="367" y="1031" type="line"/>
      <point x="112" y="875" type="line"/>
      <point x="55" y="983" type="line"/>
      <point x="320" y="1113" type="line"/>
      <point x="54" y="1243" type="line"/>
      <point x="111" y="1351" type="line"/>
      <point x="367" y="1199" type="line"/>
      <point x="361" y="1474" type="line"/>
      <point x="474" y="1474" type="line"/>
      <point x="467" y="1200" type="line"/>
      <point x="722" y="1352" type="line"/>
      <point x="779" y="1244" type="line"/>
      <point x="514" y="1114" type="line"/>
      <point x="780" y="984" type="line"/>
      <point x="723" y="876" type="line"/>
      <point x="467" y="1032" type="line"/>
    </contour>
  </outline>
</glyph>
<glyph name="plus" format="1">
  <advance width="860"/>
  <unicode hex="002B"/>
  <outline>
    <contour>
      <point x="72" y="652" type="line"/>
      <point x="72" y="802" type="line"/>
      <point x="351" y="802" type="line"/>
      <point x="351" y="1100" type="line"/>
      <point x="503" y="1100" type="line"/>
      <point x="503" y="802" type="line"/>
      <point x="778" y="802" type="line"/>
      <point x="778" y="652" type="line"/>
      <point x="503" y="652" type="line"/>
      <point x="503" y="350" type="line"/>
      <point x="351" y="350" type="line"/>
      <point x="351" y="652" type="line"/>
    </contour>
  </outline>
</glyph>
<glyph name="comma" format="1">
  <advance width="445"/>
  <unicode hex="002C"/>
  <outline>
    <contour>
      <point x="85" y="240" type="line"/>
      <point x="355" y="240" type="line"/>
      <point x="355" y="95" type="line" smooth="yes"/>
      <point x="355" y="-103"/>
      <point x="324" y="-214"/>
      <point x="182" y="-295" type="curve"/>
      <point x="111" y="-203" type="line"/>
      <point x="144" y="-172"/>
      <point x="204" y="-92"/>
      <point x="204" y="-13" type="curve"/>
      <point x="85" y="0" type="line"/>
    </contour>
  </outline>
</glyph>
<glyph name="hyphen" format="1">
  <advance width="724"/>
  <unicode hex="002D"/>
  <outline>
    <contour>
      <point x="100" y="360" type="line"/>
      <point x="100" y="527" type="line"/>
      <point x="600" y="527" type="line"/>
      <point x="600" y="360" type="line"/>
    </contour>
  </outline>
</glyph>
<glyph name="period" format="1">
  <advance width="434"/>
  <unicode hex="002E"/>
  <outline>
    <contour>
      <point x="85" y="240" type="line"/>
      <point x="345" y="240" type="line"/>
      <point x="345" y="0" type="line"/>
      <point x="85" y="0" type="line"/>
    </contour>
  </outline>
</glyph>
<glyph name="one" format="1">
  <advance width="924"/>
  <unicode hex="0031"/>
  <outline>
    <contour>
      <point x="405" y="1258" type="line"/>
      <point x="405" y="0" type="line"/>
      <point x="625" y="0" type="line"/>
      <point x="625" y="1464" type="line"/>
      <point x="434" y="1464" type="line"/>
      <point x="114" y="1333" type="line"/>
      <point x="179" y="1158" type="line"/>
    </contour>
  </outline>
</glyph>
<glyph name="five" format="1">
  <advance width="1246"/>
  <unicode hex="0035"/>
  <outline>
    <contour>
      <point x="652" y="928" type="curve" smooth="yes"/>
      <point x="983" y="928"/>
      <point x="1135" y="719"/>
      <point x="1135" y="461" type="curve" smooth="yes"/>
      <point x="1135" y="181"/>
      <point x="941" y="-24"/>
      <point x="632" y="-24" type="curve" smooth="yes"/>
      <point x="395" y="-24"/>
      <point x="210" y="66"/>
      <point x="116" y="309" type="curve"/>
      <point x="300" y="382" type="line"/>
      <point x="373" y="229"/>
      <point x="491" y="149"/>
      <point x="623" y="149" type="curve" smooth="yes"/>
      <point x="782" y="149"/>
      <point x="914" y="273"/>
      <point x="914" y="453" type="curve" smooth="yes"/>
      <point x="914" y="621"/>
      <point x="813" y="751"/>
      <point x="642" y="751" type="curve" smooth="yes"/>
      <point x="541" y="751"/>
      <point x="446" y="725"/>
      <point x="347" y="658" type="curve"/>
      <point x="212" y="744" type="line"/>
      <point x="308" y="1464" type="line"/>
      <point x="1019" y="1464" type="line"/>
      <point x="1019" y="1275" type="line"/>
      <point x="502" y="1275" type="line"/>
      <point x="438" y="856" type="line"/>
      <point x="375" y="858" type="line"/>
      <point x="465" y="908"/>
      <point x="572" y="928"/>
    </contour>
  </outline>
</glyph>
<glyph name="seven" format="1">
  <advance width="1246"/>
  <unicode hex="0037"/>
  <outline>
    <contour>
      <point x="255" y="1294" type="line"/>
      <point x="239" y="1464" type="line"/>
      <point x="1086" y="1464" type="line"/>
      <point x="1086" y="1295" type="line"/>
      <point x="532" y="-1" type="line"/>
      <point x="292" y="0" type="line"/>
      <point x="855" y="1294" type="line"/>
    </contour>
  </outline>
</glyph>
<glyph name="eight" format="1">
  <advance width="1246"/>
  <unicode hex="0038"/>
  <outline>
    <contour>
      <point x="541" y="680" type="curve"/>
      <point x="395" y="586"/>
      <point x="373" y="477"/>
      <point x="384" y="361" type="curve" smooth="yes"/>
      <point x="395" y="247"/>
      <point x="477" y="155"/>
      <point x="623" y="154" type="curve" smooth="yes"/>
      <point x="755" y="153"/>
      <point x="877" y="236"/>
      <point x="877" y="368" type="curve" smooth="yes"/>
      <point x="877" y="586"/>
      <point x="756" y="618"/>
    </contour>
    <contour>
      <point x="145" y="351" type="curve" smooth="yes"/>
      <point x="142" y="503"/>
      <point x="185" y="625"/>
      <point x="389" y="744" type="curve"/>
      <point x="276" y="797"/>
      <point x="154" y="925"/>
      <point x="154" y="1101" type="curve" smooth="yes"/>
      <point x="154" y="1379"/>
      <point x="395" y="1489"/>
      <point x="633" y="1489" type="curve" smooth="yes"/>
      <point x="878" y="1489"/>
      <point x="1100" y="1375"/>
      <point x="1100" y="1099" type="curve" smooth="yes"/>
      <point x="1100" y="903"/>
      <point x="928" y="798"/>
      <point x="839" y="766" type="curve"/>
      <point x="1094" y="643"/>
      <point x="1101" y="506"/>
      <point x="1101" y="365" type="curve" smooth="yes"/>
      <point x="1101" y="160"/>
      <point x="926" y="-24"/>
      <point x="608" y="-24" type="curve" smooth="yes"/>
      <point x="320" y="-24"/>
      <point x="149" y="154"/>
    </contour>
    <contour>
      <point x="676" y="827" type="curve"/>
      <point x="768" y="875"/>
      <point x="873" y="942"/>
      <point x="873" y="1101" type="curve" smooth="yes"/>
      <point x="873" y="1228"/>
      <point x="790" y="1313"/>
      <point x="633" y="1313" type="curve" smooth="yes"/>
      <point x="483" y="1313"/>
      <point x="383" y="1241"/>
      <point x="383" y="1104" type="curve" smooth="yes"/>
      <point x="383" y="914"/>
      <point x="471" y="892"/>
    </contour>
  </outline>
</glyph>
<glyph name="colon" format="1">
  <advance width="482"/>
  <unicode hex="003A"/>
  <outline>
    <contour>
      <point x="375" y="408" type="line"/>
      <point x="375" y="171" type="line"/>
      <point x="116" y="171" type="line"/>
      <point x="116" y="408" type="line"/>
    </contour>
    <contour>
      <point x="116" y="1047" type="line"/>
      <point x="375" y="1047" type="line"/>
      <point x="375" y="808" type="line"/>
      <point x="116" y="808" type="line"/>
    </contour>
  </outline>
</glyph>
<glyph name="greater" format="1">
  <advance width="1051"/>
  <unicode hex="003E"/>
  <outline>
    <contour>
      <point x="49" y="775" type="line"/>
      <point x="49" y="983" type="line"/>
      <point x="998" y="617" type="line"/>
      <point x="998" y="423" type="line"/>
      <point x="49" y="72" type="line"/>
      <point x="49" y="301" type="line"/>
      <point x="759" y="531" type="line"/>
    </contour>
  </outline>
</glyph>
<glyph name="at" format="1">
  <advance width="1704"/>
  <unicode hex="0040"/>
  <outline>
    <contour>
      <point x="1073" y="239" type="curve"/>
      <point x="1018" y="140"/>
      <point x="892" y="62"/>
      <point x="764" y="67" type="curve" smooth="yes"/>
      <point x="549" y="75"/>
      <point x="425" y="242"/>
      <point x="425" y="425" type="curve" smooth="yes"/>
      <point x="425" y="679"/>
      <point x="614" y="940"/>
      <point x="866" y="940" type="curve" smooth="yes"/>
      <point x="951" y="940"/>
      <point x="1046" y="900"/>
      <point x="1105" y="844" type="curve"/>
      <point x="1135" y="917" type="line"/>
      <point x="1280" y="917" type="line"/>
      <point x="1191" y="326" type="line" smooth="yes"/>
      <point x="1182" y="264"/>
      <point x="1223" y="241"/>
      <point x="1276" y="241" type="curve" smooth="yes"/>
      <point x="1373" y="241"/>
      <point x="1443" y="339"/>
      <point x="1443" y="608" type="curve" smooth="yes"/>
      <point x="1443" y="938"/>
      <point x="1186" y="1097"/>
      <point x="886" y="1097" type="curve" smooth="yes"/>
      <point x="508" y="1097"/>
      <point x="274" y="755"/>
      <point x="274" y="467" type="curve" smooth="yes"/>
      <point x="274" y="171"/>
      <point x="440" y="-71"/>
      <point x="849" y="-71" type="curve" smooth="yes"/>
      <point x="1017" y="-71"/>
      <point x="1163" y="-15"/>
      <point x="1221" y="19" type="curve"/>
      <point x="1288" y="-105" type="line"/>
      <point x="1161" y="-179"/>
      <point x="1014" y="-223"/>
      <point x="842" y="-223" type="curve" smooth="yes"/>
      <point x="320" y="-223"/>
      <point x="84" y="97"/>
      <point x="84" y="476" type="curve" smooth="yes"/>
      <point x="84" y="865"/>
      <point x="383" y="1256"/>
      <point x="883" y="1256" type="curve" smooth="yes"/>
      <point x="1277" y="1256"/>
      <point x="1621" y="998"/>
      <point x="1621" y="596" type="curve" smooth="yes"/>
      <point x="1621" y="275"/>
      <point x="1442" y="106"/>
      <point x="1258" y="106" type="curve" smooth="yes"/>
      <point x="1202" y="106"/>
      <point x="1102" y="132"/>
    </contour>
    <contour>
      <point x="1073" y="724" type="line"/>
      <point x="1018" y="771"/>
      <point x="950" y="799"/>
      <point x="879" y="799" type="curve" smooth="yes"/>
      <point x="732" y="799"/>
      <point x="614" y="655"/>
      <point x="614" y="422" type="curve" smooth="yes"/>
      <point x="614" y="295"/>
      <point x="687" y="211"/>
      <point x="783" y="211" type="curve" smooth="yes"/>
      <point x="873" y="211"/>
      <point x="1001" y="259"/>
      <point x="1039" y="504" type="curve" smooth="yes"/>
    </contour>
  </outline>
</glyph>
<glyph name="A" format="1">
  <advance width="1297"/>
  <unicode hex="0041"/>
  <outline>
    <contour>
      <point x="28" y="0" type="line"/>
      <point x="484" y="1464" type="line"/>
      <point x="804" y="1464" type="line"/>
      <point x="1269" y="0" type="line"/>
      <point x="1038" y="0" type="line"/>
      <point x="916" y="379" type="line"/>
      <point x="364" y="379" type="line"/>
      <point x="248" y="0" type="line"/>
    </contour>
    <contour>
      <point x="640" y="1320" type="line"/>
      <point x="412" y="540" type="line"/>
      <point x="866" y="540" type="line"/>
    </contour>
  </outline>
</glyph>
<glyph name="C" format="1">
  <advance width="1394"/>
  <unicode hex="0043"/>
  <outline>
    <contour>
      <point x="98" y="734" type="curve" smooth="yes"/>
      <point x="98" y="203"/>
      <point x="336" y="-24"/>
      <point x="758" y="-24" type="curve" smooth="yes"/>
      <point x="1016" y="-24"/>
      <point x="1232" y="79"/>
      <point x="1325" y="355" type="curve"/>
      <point x="1121" y="402" type="line"/>
      <point x="1065" y="253"/>
      <point x="972" y="150"/>
      <point x="749" y="150" type="curve" smooth="yes"/>
      <point x="437" y="150"/>
      <point x="330" y="337"/>
      <point x="330" y="734" type="curve" smooth="yes"/>
      <point x="330" y="1131"/>
      <point x="437" y="1313"/>
      <point x="749" y="1313" type="curve" smooth="yes"/>
      <point x="972" y="1313"/>
      <point x="1065" y="1211"/>
      <point x="1121" y="1062" type="curve"/>
      <point x="1325" y="1109" type="line"/>
      <point x="1232" y="1385"/>
      <point x="1016" y="1488"/>
      <point x="758" y="1488" type="curve" smooth="yes"/>
      <point x="336" y="1488"/>
      <point x="98" y="1265"/>
    </contour>
  </outline>
</glyph>
<glyph name="D" format="1">
  <advance width="1444"/>
  <unicode hex="0044"/>
  <outline>
    <component base="uc_main_stem" xOffset="32"/>
    <contour>
      <point x="247" y="1464" type="line"/>
      <point x="684" y="1464" type="line" smooth="yes"/>
      <point x="1126" y="1464"/>
      <point x="1346" y="1280"/>
      <point x="1346" y="738" type="curve" smooth="yes"/>
      <point x="1346" y="213"/>
      <point x="1157" y="0"/>
      <point x="685" y="0" type="curve" smooth="yes"/>
      <point x="249" y="0" type="line"/>
      <point x="249" y="168" type="line"/>
      <point x="622" y="168" type="line" smooth="yes"/>
      <point x="999" y="168"/>
      <point x="1125" y="292"/>
      <point x="1125" y="737" type="curve" smooth="yes"/>
      <point x="1125" y="1127"/>
      <point x="1028" y="1296"/>
      <point x="682" y="1296" type="curve" smooth="yes"/>
      <point x="247" y="1296" type="line"/>
    </contour>
  </outline>
</glyph>
<glyph name="E" format="1">
  <advance width="1230"/>
  <unicode hex="0045"/>
  <outline>
    <component base="uc_main_stem" xOffset="32"/>
    <contour>
      <point x="253" y="1464" type="line"/>
      <point x="1149" y="1464" type="line"/>
      <point x="1149" y="1300" type="line"/>
      <point x="253" y="1300" type="line"/>
    </contour>
    <contour>
      <point x="253" y="862" type="line"/>
      <point x="1047" y="862" type="line"/>
      <point x="1047" y="694" type="line"/>
      <point x="253" y="694" type="line"/>
    </contour>
    <contour>
      <point x="1160" y="0" type="line"/>
      <point x="253" y="0" type="line"/>
      <point x="253" y="164" type="line"/>
      <point x="1160" y="164" type="line"/>
    </contour>
  </outline>
</glyph>
<glyph name="F" format="1">
  <advance width="1205"/>
  <unicode hex="0046"/>
  <outline>
    <component base="uc_main_stem" xOffset="32"/>
    <contour>
      <point x="1162" y="1300" type="line"/>
      <point x="251" y="1300" type="line"/>
      <point x="250" y="1464" type="line"/>
      <point x="1162" y="1464" type="line"/>
    </contour>
    <contour>
      <point x="251" y="850" type="line"/>
      <point x="1050" y="850" type="line"/>
      <point x="1050" y="682" type="line"/>
      <point x="251" y="682" type="line"/>
    </contour>
  </outline>
</glyph>
<glyph name="H" format="1">
  <advance width="1508"/>
  <unicode hex="0048"/>
  <outline>
    <component base="uc_main_stem" xOffset="32"/>
    <component base="uc_main_stem" xOffset="1048"/>
    <contour>
      <point x="1261" y="844" type="line"/>
      <point x="1261" y="669" type="line"/>
      <point x="257" y="669" type="line"/>
      <point x="257" y="844" type="line"/>
    </contour>
  </outline>
</glyph>
<glyph name="J" format="1">
  <advance width="1061"/>
  <unicode hex="004A"/>
  <outline>
    <contour>
      <point x="35" y="332" type="curve"/>
      <point x="234" y="387" type="line"/>
      <point x="272" y="216"/>
      <point x="366" y="158"/>
      <point x="463" y="158" type="curve" smooth="yes"/>
      <point x="646" y="158"/>
      <point x="705" y="275"/>
      <point x="705" y="541" type="curve" smooth="yes"/>
      <point x="705" y="1464" type="line"/>
      <point x="925" y="1464" type="line"/>
      <point x="925" y="544" type="line" smooth="yes"/>
      <point x="925" y="166"/>
      <point x="774" y="-20"/>
      <point x="457" y="-20" type="curve" smooth="yes"/>
      <point x="227" y="-20"/>
      <point x="78" y="115"/>
    </contour>
  </outline>
</glyph>
<glyph name="K" format="1">
  <advance width="1284"/>
  <unicode hex="004B"/>
  <outline>
    <component base="uc_main_stem" xOffset="32"/>
    <contour>
      <point x="680" y="996" type="line"/>
      <point x="1308" y="0" type="line"/>
      <point x="1059" y="0" type="line"/>
      <point x="526" y="847" type="line"/>
    </contour>
    <contour>
      <point x="1254" y="1464" type="line"/>
      <point x="251" y="430" type="line"/>
      <point x="248" y="685" type="line"/>
      <point x="990" y="1464" type="line"/>
    </contour>
  </outline>
</glyph>
<glyph name="O" format="1">
  <advance width="1497"/>
  <unicode hex="004F"/>
  <outline>
    <contour>
      <point x="747" y="1488" type="curve" smooth="yes"/>
      <point x="1137" y="1488"/>
      <point x="1399" y="1291"/>
      <point x="1399" y="741" type="curve" smooth="yes"/>
      <point x="1399" y="183"/>
      <point x="1147" y="-24"/>
      <point x="746" y="-24" type="curve" smooth="yes"/>
      <point x="353" y="-24"/>
      <point x="98" y="176"/>
      <point x="98" y="740" type="curve" smooth="yes"/>
      <point x="98" y="1292"/>
      <point x="358" y="1488"/>
    </contour>
    <contour>
      <point x="747" y="1313" type="curve" smooth="yes"/>
      <point x="417" y="1313"/>
      <point x="330" y="1094"/>
      <point x="330" y="740" type="curve" smooth="yes"/>
      <point x="330" y="339"/>
      <point x="432" y="150"/>
      <point x="747" y="150" type="curve" smooth="yes"/>
      <point x="1068" y="150"/>
      <point x="1167" y="334"/>
      <point x="1167" y="739" type="curve" smooth="yes"/>
      <point x="1167" y="1095"/>
      <point x="1078" y="1313"/>
    </contour>
  </outline>
</glyph>
<glyph name="Q" format="1">
  <advance width="1530"/>
  <unicode hex="0051"/>
  <outline>
    <component base="O"/>
    <contour>
      <point x="1274" y="-364" type="line"/>
      <point x="972" y="80" type="line"/>
      <point x="1117" y="179" type="line"/>
      <point x="1437" y="-243" type="line"/>
    </contour>
  </outline>
</glyph>
<glyph name="S" format="1">
  <advance width="1216"/>
  <unicode hex="0053"/>
  <outline>
    <contour>
      <point x="618" y="1491" type="curve" smooth="yes"/>
      <point x="850" y="1491"/>
      <point x="1003" y="1424"/>
      <point x="1127" y="1240" type="curve"/>
      <point x="965" y="1123" type="line"/>
      <point x="885" y="1253"/>
      <point x="779" y="1316"/>
      <point x="643" y="1316" type="curve" smooth="yes"/>
      <point x="438" y="1316"/>
      <point x="330" y="1256"/>
      <point x="330" y="1139" type="curve" smooth="yes"/>
      <point x="330" y="966"/>
      <point x="452" y="951"/>
      <point x="727" y="866" type="curve" smooth="yes"/>
      <point x="1012" y="778"/>
      <point x="1188" y="676"/>
      <point x="1188" y="393" type="curve" smooth="yes"/>
      <point x="1188" y="116"/>
      <point x="965" y="-25"/>
      <point x="615" y="-25" type="curve" smooth="yes"/>
      <point x="390" y="-25"/>
      <point x="101" y="69"/>
      <point x="45" y="373" type="curve"/>
      <point x="230" y="454" type="line"/>
      <point x="297" y="238"/>
      <point x="414" y="152"/>
      <point x="634" y="152" type="curve" smooth="yes"/>
      <point x="796" y="152"/>
      <point x="960" y="193"/>
      <point x="959" y="386" type="curve" smooth="yes"/>
      <point x="958" y="571"/>
      <point x="870" y="606"/>
      <point x="567" y="699" type="curve" smooth="yes"/>
      <point x="291" y="784"/>
      <point x="101" y="852"/>
      <point x="101" y="1125" type="curve" smooth="yes"/>
      <point x="101" y="1380"/>
      <point x="352" y="1491"/>
    </contour>
  </outline>
</glyph>
<glyph name="T" format="1">
  <advance width="1119"/>
  <unicode hex="0054"/>
  <outline>
    <component base="uc_main_stem" xOffset="358"/>
    <contour>
      <point x="9" y="1300" type="line"/>
      <point x="9" y="1464" type="line"/>
      <point x="1110" y="1464" type="line"/>
      <point x="1110" y="1300" type="line"/>
    </contour>
  </outline>
</glyph>
<glyph name="W" format="1">
  <advance width="1797"/>
  <unicode hex="0057"/>
  <outline>
    <contour>
      <point x="393" y="0" type="line"/>
      <point x="-24" y="1464" type="line"/>
      <point x="205" y="1464" type="line"/>
      <point x="487" y="351" type="line"/>
      <point x="852" y="1464" type="line"/>
      <point x="1006" y="1464" type="line"/>
      <point x="1322" y="325" type="line"/>
      <point x="1636" y="1464" type="line"/>
      <point x="1845" y="1464" type="line"/>
      <point x="1403" y="0" type="line"/>
      <point x="1214" y="0" type="line"/>
      <point x="914" y="1041" type="line"/>
      <point x="562" y="0" type="line"/>
    </contour>
  </outline>
</glyph>
<glyph name="Z" format="1">
  <advance width="1176"/>
  <unicode hex="005A"/>
  <outline>
    <contour>
      <point x="125" y="1298" type="line"/>
      <point x="125" y="1464" type="line"/>
      <point x="1136" y="1464" type="line"/>
      <point x="1136" y="1325" type="line"/>
      <point x="322" y="165" type="line"/>
      <point x="1141" y="165" type="line"/>
      <point x="1134" y="0" type="line"/>
      <point x="42" y="0" type="line"/>
      <point x="42" y="148" type="line"/>
      <point x="853" y="1298" type="line"/>
    </contour>
  </outline>
</glyph>
<glyph name="bracketright" format="1">
  <advance width="708"/>
  <unicode hex="005D"/>
  <outline>
    <contour>
      <point x="132" y="1320" type="line"/>
      <point x="132" y="1480" type="line"/>
      <point x="620" y="1480" type="line"/>
      <point x="620" y="-52" type="line"/>
      <point x="132" y="-52" type="line"/>
      <point x="132" y="110" type="line"/>
      <point x="400" y="110" type="line"/>
      <point x="400" y="1320" type="line"/>
    </contour>
  </outline>
</glyph>
<glyph name="a" format="1">
  <advance width="1004"/>
  <unicode hex="0061"/>
  <outline>
    <contour>
      <point x="688" y="259" type="line"/>
      <point x="618" y="179"/>
      <point x="538" y="121"/>
      <point x="417" y="121" type="curve" smooth="yes"/>
      <point x="300" y="121"/>
      <point x="269" y="176"/>
      <point x="267" y="257" type="curve" smooth="yes"/>
      <point x="264" y="369"/>
      <point x="323" y="401"/>
      <point x="555" y="445" type="curve" smooth="yes"/>
      <point x="688" y="470" type="line"/>
    </contour>
    <contour>
      <point x="718" y="0" type="line"/>
      <point x="900" y="0" type="line"/>
      <point x="900" y="680" type="line" smooth="yes"/>
      <point x="900" y="934"/>
      <point x="743" y="1047"/>
      <point x="499" y="1047" type="curve" smooth="yes"/>
      <point x="323" y="1047"/>
      <point x="213" y="1003"/>
      <point x="99" y="921" type="curve"/>
      <point x="99" y="921"/>
      <point x="182" y="796"/>
      <point x="182" y="795" type="curve"/>
      <point x="269" y="853"/>
      <point x="349" y="896"/>
      <point x="491" y="896" type="curve" smooth="yes"/>
      <point x="662" y="896"/>
      <point x="688" y="821"/>
      <point x="688" y="642" type="curve" smooth="yes"/>
      <point x="688" y="601" type="line"/>
      <point x="569" y="582" type="line" smooth="yes"/>
      <point x="284" y="537"/>
      <point x="70" y="501"/>
      <point x="70" y="245" type="curve" smooth="yes"/>
      <point x="70" y="68"/>
      <point x="207" y="-24"/>
      <point x="389" y="-24" type="curve" smooth="yes"/>
      <point x="522" y="-24"/>
      <point x="632" y="25"/>
      <point x="700" y="120" type="curve"/>
    </contour>
  </outline>
</glyph>
<glyph name="b" format="1">
  <advance width="1140"/>
  <unicode hex="0062"/>
  <outline>
    <component base="lc_ascender_stem_2" xOffset="26"/>
    <contour>
      <point x="609" y="-24" type="curve" smooth="yes"/>
      <point x="892" y="-24"/>
      <point x="1052" y="169"/>
      <point x="1052" y="521" type="curve" smooth="yes"/>
      <point x="1052" y="868"/>
      <point x="870" y="1047"/>
      <point x="608" y="1047" type="curve" smooth="yes"/>
      <point x="368" y="1047"/>
      <point x="246" y="843"/>
      <point x="223" y="646" type="curve"/>
      <point x="223" y="351" type="line"/>
      <point x="244" y="117"/>
      <point x="385" y="-24"/>
    </contour>
    <contour>
      <point x="594" y="126" type="curve" smooth="yes"/>
      <point x="362" y="126"/>
      <point x="318" y="275"/>
      <point x="318" y="522" type="curve" smooth="yes"/>
      <point x="318" y="834"/>
      <point x="465" y="897"/>
      <point x="595" y="897" type="curve" smooth="yes"/>
      <point x="760" y="897"/>
      <point x="835" y="761"/>
      <point x="835" y="518" type="curve" smooth="yes"/>
      <point x="835" y="254"/>
      <point x="766" y="126"/>
    </contour>
  </outline>
</glyph>
<glyph name="d" format="1">
  <advance width="1137"/>
  <unicode hex="0064"/>
  <outline>
    <component base="lc_ascender_stem_3" xOffset="36" yOffset="4"/>
    <contour>
      <point x="533" y="-24" type="curve" smooth="yes"/>
      <point x="757" y="-24"/>
      <point x="898" y="121"/>
      <point x="919" y="355" type="curve"/>
      <point x="919" y="646" type="line"/>
      <point x="890" y="848"/>
      <point x="777" y="1047"/>
      <point x="537" y="1047" type="curve" smooth="yes"/>
      <point x="275" y="1047"/>
      <point x="87" y="873"/>
      <point x="87" y="523" type="curve" smooth="yes"/>
      <point x="87" y="171"/>
      <point x="250" y="-24"/>
    </contour>
    <contour>
      <point x="548" y="126" type="curve" smooth="yes"/>
      <point x="372" y="135"/>
      <point x="303" y="259"/>
      <point x="303" y="523" type="curve" smooth="yes"/>
      <point x="303" y="769"/>
      <point x="378" y="890"/>
      <point x="544" y="897" type="curve" smooth="yes"/>
      <point x="674" y="902"/>
      <point x="822" y="830"/>
      <point x="822" y="522" type="curve" smooth="yes"/>
      <point x="822" y="291"/>
      <point x="763" y="115"/>
    </contour>
  </outline>
</glyph>
<glyph name="e" format="1">
  <advance width="1038"/>
  <unicode hex="0065"/>
  <outline>
    <contour>
      <point x="543" y="1047" type="curve" smooth="yes"/>
      <point x="828" y="1047"/>
      <point x="961" y="841"/>
      <point x="961" y="568" type="curve" smooth="yes"/>
      <point x="961" y="559"/>
      <point x="960" y="485"/>
      <point x="958" y="468" type="curve"/>
      <point x="300" y="468" type="line"/>
      <point x="303" y="304"/>
      <point x="365" y="127"/>
      <point x="549" y="127" type="curve" smooth="yes"/>
      <point x="687" y="127"/>
      <point x="749" y="212"/>
      <point x="784" y="307" type="curve" smooth="yes"/>
      <point x="784" y="308"/>
      <point x="943" y="272"/>
      <point x="943" y="272" type="curve"/>
      <point x="896" y="94"/>
      <point x="749" y="-24"/>
      <point x="552" y="-24" type="curve" smooth="yes"/>
      <point x="229" y="-24"/>
      <point x="88" y="217"/>
      <point x="88" y="512" type="curve" smooth="yes"/>
      <point x="88" y="843"/>
      <point x="254" y="1047"/>
    </contour>
    <contour>
      <point x="762" y="607" type="line"/>
      <point x="762" y="796"/>
      <point x="701" y="896"/>
      <point x="539" y="896" type="curve" smooth="yes"/>
      <point x="358" y="896"/>
      <point x="305" y="721"/>
      <point x="300" y="607" type="curve"/>
    </contour>
  </outline>
</glyph>
<glyph name="k" format="1">
  <advance width="1052"/>
  <unicode hex="006B"/>
  <outline>
    <component base="lc_ascender_stem" xOffset="15"/>
    <contour>
      <point x="233" y="245" type="line"/>
      <point x="1042" y="1023" type="line"/>
      <point x="803" y="1023" type="line"/>
      <point x="233" y="468" type="line"/>
    </contour>
    <contour>
      <point x="823" y="0" type="line"/>
      <point x="1062" y="0" type="line"/>
      <point x="596" y="698" type="line"/>
      <point x="455" y="569" type="line"/>
    </contour>
  </outline>
</glyph>
<glyph name="l" format="1">
  <advance width="473"/>
  <unicode hex="006C"/>
  <outline>
    <contour>
      <point x="127" y="0" type="line"/>
      <point x="127" y="1474" type="line"/>
      <point x="339" y="1474" type="line"/>
      <point x="339" y="0" type="line"/>
    </contour>
  </outline>
</glyph>
<glyph name="m" format="1">
  <advance width="1795"/>
  <unicode hex="006D"/>
  <outline>
    <component base="lc_main_stem" xOffset="15"/>
    <contour>
      <point x="1483" y="0" type="line"/>
      <point x="1695" y="0" type="line"/>
      <point x="1695" y="595" type="line" smooth="yes"/>
      <point x="1695" y="801"/>
      <point x="1654" y="1047"/>
      <point x="1331" y="1047" type="curve" smooth="yes"/>
      <point x="1078" y="1047"/>
      <point x="949" y="899"/>
      <point x="915" y="624" type="curve"/>
      <point x="1010" y="497" type="line"/>
      <point x="1010" y="701"/>
      <point x="1062" y="897"/>
      <point x="1285" y="897" type="curve" smooth="yes"/>
      <point x="1433" y="897"/>
      <point x="1483" y="801"/>
      <point x="1483" y="602" type="curve" smooth="yes"/>
    </contour>
    <contour>
      <point x="798" y="0" type="line"/>
      <point x="1010" y="0" type="line"/>
      <point x="1010" y="595" type="line" smooth="yes"/>
      <point x="1010" y="807"/>
      <point x="969" y="1047"/>
      <point x="646" y="1047" type="curve" smooth="yes"/>
      <point x="393" y="1047"/>
      <point x="274" y="884"/>
      <point x="224" y="624" type="curve"/>
      <point x="325" y="491" type="line"/>
      <point x="325" y="695"/>
      <point x="381" y="897"/>
      <point x="600" y="897" type="curve" smooth="yes"/>
      <point x="748" y="897"/>
      <point x="798" y="801"/>
      <point x="798" y="602" type="curve" smooth="yes"/>
    </contour>
  </outline>
</glyph>
<glyph name="n" format="1">
  <advance width="1111"/>
  <unicode hex="006E"/>
  <outline>
    <component base="lc_main_stem" xOffset="15"/>
    <contour>
      <point x="798" y="0" type="line"/>
      <point x="1010" y="0" type="line"/>
      <point x="1010" y="595" type="line" smooth="yes"/>
      <point x="1010" y="801"/>
      <point x="969" y="1047"/>
      <point x="646" y="1047" type="curve" smooth="yes"/>
      <point x="393" y="1047"/>
      <point x="272" y="884"/>
      <point x="224" y="624" type="curve"/>
      <point x="325" y="491" type="line"/>
      <point x="325" y="685"/>
      <point x="386" y="897"/>
      <point x="605" y="897" type="curve" smooth="yes"/>
      <point x="753" y="897"/>
      <point x="798" y="796"/>
      <point x="798" y="597" type="curve" smooth="yes"/>
    </contour>
  </outline>
</glyph>
<glyph name="o" format="1">
  <advance width="1104"/>
  <unicode hex="006F"/>
  <outline>
    <contour>
      <point x="1016" y="512" type="curve" smooth="yes"/>
      <point x="1016" y="866"/>
      <point x="838" y="1047"/>
      <point x="552" y="1047" type="curve" smooth="yes"/>
      <point x="266" y="1047"/>
      <point x="88" y="866"/>
      <point x="88" y="512" type="curve" smooth="yes"/>
      <point x="88" y="158"/>
      <point x="266" y="-24"/>
      <point x="552" y="-24" type="curve" smooth="yes"/>
      <point x="838" y="-24"/>
      <point x="1016" y="158"/>
    </contour>
    <contour>
      <point x="305" y="512" type="curve" smooth="yes"/>
      <point x="305" y="702"/>
      <point x="346" y="897"/>
      <point x="552" y="897" type="curve" smooth="yes"/>
      <point x="758" y="897"/>
      <point x="799" y="702"/>
      <point x="799" y="512" type="curve" smooth="yes"/>
      <point x="799" y="322"/>
      <point x="758" y="126"/>
      <point x="552" y="126" type="curve" smooth="yes"/>
      <point x="346" y="126"/>
      <point x="305" y="322"/>
    </contour>
  </outline>
</glyph>
<glyph name="q" format="1">
  <advance width="1147"/>
  <unicode hex="0071"/>
  <outline>
    <component base="lc_descender_stem_2" xOffset="765"/>
    <contour>
      <point x="531" y="-24" type="curve" smooth="yes"/>
      <point x="755" y="-24"/>
      <point x="896" y="117"/>
      <point x="917" y="351" type="curve"/>
      <point x="917" y="646" type="line"/>
      <point x="894" y="843"/>
      <point x="772" y="1047"/>
      <point x="532" y="1047" type="curve" smooth="yes"/>
      <point x="270" y="1047"/>
      <point x="88" y="868"/>
      <point x="88" y="521" type="curve" smooth="yes"/>
      <point x="88" y="169"/>
      <point x="248" y="-24"/>
    </contour>
    <contour>
      <point x="546" y="126" type="curve" smooth="yes"/>
      <point x="374" y="126"/>
      <point x="305" y="254"/>
      <point x="305" y="518" type="curve" smooth="yes"/>
      <point x="305" y="761"/>
      <point x="380" y="897"/>
      <point x="545" y="897" type="curve" smooth="yes"/>
      <point x="675" y="897"/>
      <point x="822" y="834"/>
      <point x="822" y="522" type="curve" smooth="yes"/>
      <point x="822" y="275"/>
      <point x="778" y="126"/>
    </contour>
  </outline>
</glyph>
<glyph name="r" format="1">
  <advance width="647"/>
  <unicode hex="0072"/>
  <outline>
    <component base="lc_main_stem" xOffset="18"/>
    <contour>
      <point x="328" y="502" type="line"/>
      <point x="328" y="687"/>
      <point x="411" y="847"/>
      <point x="630" y="847" type="curve"/>
      <point x="630" y="1035" type="line"/>
      <point x="430" y="1035"/>
      <point x="300" y="913"/>
      <point x="235" y="609" type="curve"/>
    </contour>
  </outline>
</glyph>
<glyph name="t" format="1">
  <advance width="693"/>
  <unicode hex="0074"/>
  <outline>
    <contour>
      <point x="643" y="173" type="curve"/>
      <point x="677" y="32" type="line"/>
      <point x="612" y="1"/>
      <point x="542" y="-16"/>
      <point x="477" y="-16" type="curve" smooth="yes"/>
      <point x="316" y="-16"/>
      <point x="173" y="61"/>
      <point x="173" y="298" type="curve" smooth="yes"/>
      <point x="173" y="879" type="line"/>
      <point x="30" y="879" type="line"/>
      <point x="30" y="1023" type="line"/>
      <point x="174" y="1023" type="line"/>
      <point x="182" y="1340" type="line"/>
      <point x="385" y="1394" type="line"/>
      <point x="385" y="1023" type="line"/>
      <point x="610" y="1023" type="line"/>
      <point x="610" y="879" type="line"/>
      <point x="385" y="879" type="line"/>
      <point x="385" y="311" type="line" smooth="yes"/>
      <point x="385" y="183"/>
      <point x="438" y="141"/>
      <point x="512" y="141" type="curve" smooth="yes"/>
      <point x="547" y="141"/>
      <point x="595" y="153"/>
    </contour>
  </outline>
</glyph>
<glyph name="x" format="1">
  <advance width="979"/>
  <unicode hex="0078"/>
  <outline>
    <contour>
      <point x="386" y="523" type="line"/>
      <point x="465" y="606" type="line"/>
      <point x="755" y="1023" type="line"/>
      <point x="979" y="1023" type="line"/>
      <point x="587" y="480" type="line"/>
      <point x="528" y="420" type="line"/>
      <point x="228" y="0" type="line"/>
      <point x="4" y="0" type="line"/>
    </contour>
    <contour>
      <point x="-2" y="1023" type="line"/>
      <point x="231" y="1023" type="line"/>
      <point x="981" y="0" type="line"/>
      <point x="748" y="0" type="line"/>
    </contour>
  </outline>
</glyph>
<glyph name="y" format="1">
  <advance width="971"/>
  <unicode hex="0079"/>
  <outline>
    <contour>
      <point x="153" y="-317" type="curve" smooth="yes"/>
      <point x="371" y="-317"/>
      <point x="474" y="-199"/>
      <point x="581" y="68" type="curve" smooth="yes"/>
      <point x="965" y="1023" type="line"/>
      <point x="755" y="1023" type="line"/>
      <point x="495" y="353" type="line"/>
      <point x="231" y="1023" type="line"/>
      <point x="13" y="1023" type="line"/>
      <point x="386" y="135" type="line"/>
      <point x="373" y="94" type="line" smooth="yes"/>
      <point x="312" y="-98"/>
      <point x="245" y="-135"/>
      <point x="130" y="-135" type="curve" smooth="yes"/>
      <point x="112" y="-135"/>
      <point x="91" y="-132"/>
      <point x="69" y="-129" type="curve"/>
      <point x="44" y="-302" type="line"/>
      <point x="81" y="-312"/>
      <point x="120" y="-317"/>
    </contour>
  </outline>
</glyph>
<glyph name="z" format="1">
  <advance width="878"/>
  <unicode hex="007A"/>
  <outline>
    <contour>
      <point x="86" y="870" type="line"/>
      <point x="86" y="1023" type="line"/>
      <point x="836" y="1023" type="line"/>
      <point x="836" y="878" type="line"/>
      <point x="299" y="152" type="line"/>
      <point x="834" y="152" type="line"/>
      <point x="834" y="0" type="line"/>
      <point x="62" y="0" type="line"/>
      <point x="62" y="144" type="line"/>
      <point x="587" y="870" type="line"/>
    </contour>
  </outline>
</glyph>
<glyph name="cent" format="1">
  <advance width="982"/>
  <unicode hex="00A2"/>
  <outline>
    <component base="c"/>
    <contour>
      <point x="486" y="-208" type="line"/>
      <point x="624" y="-208" type="line"/>
      <point x="624" y="1253" type="line"/>
      <point x="486" y="1253" type="line"/>
    </contour>
  </outline>
</glyph>
<glyph name="yen" format="1">
  <advance width="1162"/>
  <unicode hex="00A5"/>
  <outline>
    <component base="Y"/>
    <contour>
      <point x="216" y="542" type="line"/>
      <point x="216" y="669" type="line"/>
      <point x="950" y="669" type="line"/>
      <point x="950" y="542" type="line"/>
    </contour>
    <contour>
      <point x="950" y="432" type="line"/>
      <point x="950" y="304" type="line"/>
      <point x="216" y="304" type="line"/>
      <point x="216" y="432" type="line"/>
    </contour>
  </outline>
</glyph>
<glyph name="section" format="1">
  <advance width="1005"/>
  <unicode hex="00A7"/>
  <outline>
    <contour>
      <point x="541" y="-24" type="curve" smooth="yes"/>
      <point x="772" y="-24"/>
      <point x="918" y="76"/>
      <point x="918" y="265" type="curve" smooth="yes"/>
      <point x="918" y="367"/>
      <point x="846" y="433"/>
      <point x="771" y="483" type="curve"/>
      <point x="875" y="588"/>
      <point x="878" y="645"/>
      <point x="885" y="712" type="curve" smooth="yes"/>
      <point x="914" y="994"/>
      <point x="345" y="1060"/>
      <point x="358" y="1215" type="curve"/>
      <point x="360" y="1274"/>
      <point x="414" y="1317"/>
      <point x="529" y="1319" type="curve" smooth="yes"/>
      <point x="611" y="1320"/>
      <point x="691" y="1304"/>
      <point x="747" y="1198" type="curve"/>
      <point x="747" y="1199"/>
      <point x="884" y="1284"/>
      <point x="884" y="1284" type="curve"/>
      <point x="812" y="1436"/>
      <point x="707" y="1489"/>
      <point x="530" y="1489" type="curve" smooth="yes"/>
      <point x="311" y="1489"/>
      <point x="147" y="1391"/>
      <point x="147" y="1203" type="curve" smooth="yes"/>
      <point x="147" y="1085"/>
      <point x="225" y="1028"/>
      <point x="293" y="987" type="curve"/>
      <point x="179" y="895"/>
      <point x="155" y="823"/>
      <point x="154" y="755" type="curve" smooth="yes"/>
      <point x="149" y="429"/>
      <point x="753" y="406"/>
      <point x="728" y="247" type="curve" smooth="yes"/>
      <point x="720" y="197"/>
      <point x="679" y="152"/>
      <point x="544" y="152" type="curve" smooth="yes"/>
      <point x="422" y="152"/>
      <point x="329" y="196"/>
      <point x="280" y="328" type="curve"/>
      <point x="127" y="273" type="line"/>
      <point x="168" y="49"/>
      <point x="376" y="-24"/>
    </contour>
    <contour>
      <point x="622" y="558" type="curve"/>
      <point x="354" y="675"/>
      <point x="240" y="725"/>
      <point x="418" y="916" type="curve"/>
      <point x="712" y="791"/>
      <point x="752" y="739"/>
    </contour>
  </outline>
</glyph>
<glyph name="dieresis" format="1">
  <advance width="860"/>
  <unicode hex="00A8"/>
  <outline>
    <contour>
      <point x="750" y="1395" type="line"/>
      <point x="750" y="1161" type="line"/>
      <point x="514" y="1161" type="line"/>
      <point x="514" y="1395" type="line"/>
    </contour>
    <contour>
      <point x="65" y="1395" type="line"/>
      <point x="301" y="1395" type="line"/>
      <point x="301" y="1161" type="line"/>
      <point x="65" y="1161" type="line"/>
    </contour>
  </outline>
</glyph>
<glyph name="ordfeminine" format="1">
  <advance width="946"/>
  <unicode hex="00AA"/>
  <outline>
    <contour>
      <point x="635" y="814" type="line"/>
      <point x="591" y="760"/>
      <point x="500" y="693"/>
      <point x="418" y="700" type="curve" smooth="yes"/>
      <point x="341" y="707"/>
      <point x="304" y="755"/>
      <point x="314" y="832" type="curve" smooth="yes"/>
      <point x="325" y="914"/>
      <point x="365" y="961"/>
      <point x="549" y="976" type="curve" smooth="yes"/>
      <point x="635" y="983" type="line"/>
    </contour>
    <contour>
      <point x="640" y="700" type="curve"/>
      <point x="659" y="603" type="line"/>
      <point x="819" y="603" type="line"/>
      <point x="819" y="1140" type="line" smooth="yes"/>
      <point x="819" y="1358"/>
      <point x="695" y="1474"/>
      <point x="495" y="1474" type="curve" smooth="yes"/>
      <point x="398" y="1474"/>
      <point x="260" y="1422"/>
      <point x="185" y="1340" type="curve"/>
      <point x="185" y="1340"/>
      <point x="300" y="1234"/>
      <point x="300" y="1233" type="curve"/>
      <point x="357" y="1289"/>
      <point x="423" y="1325"/>
      <point x="497" y="1325" type="curve" smooth="yes"/>
      <point x="590" y="1325"/>
      <point x="635" y="1266"/>
      <point x="635" y="1161" type="curve" smooth="yes"/>
      <point x="635" y="1111" type="line"/>
      <point x="548" y="1105" type="line" smooth="yes"/>
      <point x="321" y="1089"/>
      <point x="145" y="1018"/>
      <point x="145" y="804" type="curve" smooth="yes"/>
      <point x="145" y="656"/>
      <point x="277" y="577"/>
      <point x="416" y="583" type="curve" smooth="yes"/>
      <point x="523" y="588"/>
      <point x="596" y="644"/>
    </contour>
  </outline>
</glyph>
<glyph name="guillemotleft" format="1">
  <advance width="946"/>
  <unicode hex="00AB"/>
  <outline>
    <contour>
      <point x="938" y="1069" type="line"/>
      <point x="938" y="857" type="line"/>
      <point x="631" y="650" type="line"/>
      <point x="938" y="441" type="line"/>
      <point x="938" y="230" type="line"/>
      <point x="483" y="501" type="line"/>
      <point x="483" y="798" type="line"/>
    </contour>
    <contour>
      <point x="-7" y="798" type="line"/>
      <point x="448" y="1069" type="line"/>
      <point x="448" y="857" type="line"/>
      <point x="141" y="650" type="line"/>
      <point x="448" y="441" type="line"/>
      <point x="448" y="230" type="line"/>
      <point x="-7" y="501" type="line"/>
    </contour>
  </outline>
</glyph>
<glyph name="logicalnot" format="1">
  <advance width="1024"/>
  <unicode hex="00AC"/>
  <outline>
    <contour>
      <point x="782" y="325" type="line"/>
      <point x="909" y="325" type="line"/>
      <point x="909" y="756" type="line"/>
      <point x="135" y="756" type="line"/>
      <point x="135" y="628" type="line"/>
      <point x="782" y="628" type="line"/>
    </contour>
  </outline>
</glyph>
<glyph name="uni00B2" format="1">
  <advance width="1230"/>
  <unicode hex="00B2"/>
  <outline>
    <contour>
      <point x="870" y="779" type="line"/>
      <point x="870" y="898" type="line"/>
      <point x="601" y="899" type="line"/>
      <point x="769" y="1045"/>
      <point x="889" y="1123"/>
      <point x="869" y="1295" type="curve" smooth="yes"/>
      <point x="852" y="1437"/>
      <point x="736" y="1491"/>
      <point x="619" y="1491" type="curve" smooth="yes"/>
      <point x="513" y="1491"/>
      <point x="399" y="1437"/>
      <point x="356" y="1316" type="curve"/>
      <point x="490" y="1249" type="line"/>
      <point x="508" y="1311"/>
      <point x="539" y="1352"/>
      <point x="610" y="1352" type="curve" smooth="yes"/>
      <point x="675" y="1352"/>
      <point x="702" y="1315"/>
      <point x="704" y="1266" type="curve" smooth="yes"/>
      <point x="708" y="1158"/>
      <point x="568" y="1072"/>
      <point x="377" y="902" type="curve"/>
      <point x="377" y="779" type="line"/>
    </contour>
  </outline>
</glyph>
<glyph name="uni00B3" format="1">
  <advance width="772"/>
  <unicode hex="00B3"/>
  <outline>
    <contour>
      <point x="611" y="1303" type="curve" smooth="yes"/>
      <point x="611" y="1411"/>
      <point x="505" y="1481"/>
      <point x="363" y="1481" type="curve" smooth="yes"/>
      <point x="281" y="1481"/>
      <point x="176" y="1441"/>
      <point x="146" y="1359" type="curve"/>
      <point x="250" y="1281" type="line"/>
      <point x="273" y="1321"/>
      <point x="310" y="1354"/>
      <point x="364" y="1354" type="curve" smooth="yes"/>
      <point x="418" y="1354"/>
      <point x="455" y="1333"/>
      <point x="458" y="1295" type="curve" smooth="yes"/>
      <point x="462" y="1237"/>
      <point x="440" y="1204"/>
      <point x="318" y="1202" type="curve"/>
      <point x="318" y="1072" type="line"/>
      <point x="454" y="1072"/>
      <point x="477" y="1024"/>
      <point x="477" y="957" type="curve" smooth="yes"/>
      <point x="477" y="907"/>
      <point x="430" y="874"/>
      <point x="376" y="874" type="curve" smooth="yes"/>
      <point x="330" y="874"/>
      <point x="272" y="889"/>
      <point x="246" y="973" type="curve"/>
      <point x="130" y="910" type="line"/>
      <point x="159" y="791"/>
      <point x="275" y="744"/>
      <point x="369" y="743" type="curve" smooth="yes"/>
      <point x="535" y="740"/>
      <point x="633" y="824"/>
      <point x="636" y="954" type="curve" smooth="yes"/>
      <point x="637" y="1006"/>
      <point x="632" y="1098"/>
      <point x="501" y="1145" type="curve"/>
      <point x="582" y="1174"/>
      <point x="611" y="1237"/>
    </contour>
  </outline>
</glyph>
<glyph name="cedilla" format="1">
  <advance width="435"/>
  <unicode hex="00B8"/>
  <outline>
    <contour>
      <point x="102" y="-387" type="curve"/>
      <point x="102" y="-500" type="line"/>
      <point x="126.591" y="-504.233"/>
      <point x="149.381" y="-506.213"/>
      <point x="170.427" y="-506.213" type="curve" smooth="yes"/>
      <point x="313.675" y="-506.213"/>
      <point x="376.165" y="-414.478"/>
      <point x="376.165" y="-316.885" type="curve" smooth="yes"/>
      <point x="376.165" y="-215.406"/>
      <point x="308.598" y="-107.594"/>
      <point x="194" y="-90" type="curve"/>
      <point x="186" y="-185" type="line"/>
      <point x="223.959" y="-196.716"/>
      <point x="254.67" y="-247.961"/>
      <point x="254.67" y="-296.232" type="curve" smooth="yes"/>
      <point x="254.67" y="-344.408"/>
      <point x="224.08" y="-389.621"/>
      <point x="139.575" y="-389.621" type="curve" smooth="yes"/>
      <point x="128.069" y="-389.621"/>
      <point x="115.564" y="-388.783"/>
    </contour>
  </outline>
</glyph>
<glyph name="uni00B9" format="1">
  <advance width="546"/>
  <unicode hex="00B9"/>
  <outline>
    <contour>
      <point x="206" y="1316" type="line"/>
      <point x="206" y="769" type="line"/>
      <point x="375" y="769" type="line"/>
      <point x="375" y="1464" type="line"/>
      <point x="221" y="1464" type="line"/>
      <point x="63" y="1390" type="line"/>
      <point x="94" y="1256" type="line"/>
    </contour>
  </outline>
</glyph>
<glyph name="ordmasculine" format="1">
  <advance width="1000"/>
  <unicode hex="00BA"/>
  <outline>
    <contour>
      <point x="119" y="1028" type="curve" smooth="yes"/>
      <point x="119" y="727"/>
      <point x="275" y="583"/>
      <point x="516" y="583" type="curve" smooth="yes"/>
      <point x="757" y="583"/>
      <point x="913" y="728"/>
      <point x="913" y="1031" type="curve" smooth="yes"/>
      <point x="913" y="1341"/>
      <point x="746" y="1474"/>
      <point x="517" y="1474" type="curve" smooth="yes"/>
      <point x="285" y="1474"/>
      <point x="119" y="1340"/>
    </contour>
    <contour>
      <point x="517" y="730" type="curve" smooth="yes"/>
      <point x="381" y="730"/>
      <point x="317" y="845"/>
      <point x="317" y="1031" type="curve" smooth="yes"/>
      <point x="317" y="1214"/>
      <point x="381" y="1330"/>
      <point x="516" y="1330" type="curve" smooth="yes"/>
      <point x="650" y="1330"/>
      <point x="716" y="1214"/>
      <point x="716" y="1029" type="curve" smooth="yes"/>
      <point x="716" y="844"/>
      <point x="650" y="730"/>
    </contour>
  </outline>
</glyph>
<glyph name="onequarter" format="1">
  <advance width="1403"/>
  <unicode hex="00BC"/>
  <outline>
    <contour>
      <point x="29" y="84" type="line"/>
      <point x="146" y="-14" type="line"/>
      <point x="1381" y="1415" type="line"/>
      <point x="1265" y="1513" type="line"/>
    </contour>
    <contour>
      <point x="184" y="1316" type="line"/>
      <point x="184" y="769" type="line"/>
      <point x="353" y="769" type="line"/>
      <point x="353" y="1464" type="line"/>
      <point x="199" y="1464" type="line"/>
      <point x="41" y="1390" type="line"/>
      <point x="72" y="1256" type="line"/>
    </contour>
    <contour>
      <point x="762" y="121" type="line"/>
      <point x="1102" y="121" type="line"/>
      <point x="1102" y="0" type="line"/>
      <point x="1266" y="0" type="line"/>
      <point x="1266" y="121" type="line"/>
      <point x="1374" y="121" type="line"/>
      <point x="1374" y="243" type="line"/>
      <point x="1266" y="243" type="line"/>
      <point x="1266" y="693" type="line"/>
      <point x="1051" y="693" type="line"/>
      <point x="762" y="220" type="line"/>
    </contour>
    <contour>
      <point x="1102" y="243" type="line"/>
      <point x="932" y="243" type="line"/>
      <point x="1102" y="542" type="line"/>
    </contour>
  </outline>
</glyph>
<glyph name="AE" format="1">
  <advance width="2030"/>
  <unicode hex="00C6"/>
  <outline>
    <contour>
      <point x="500" y="532" type="line"/>
      <point x="974" y="532" type="line"/>
      <point x="974" y="1378" type="line"/>
    </contour>
    <contour>
      <point x="-47" y="0" type="line"/>
      <point x="817" y="1464" type="line"/>
      <point x="2005" y="1464" type="line"/>
      <point x="2005" y="1296" type="line"/>
      <point x="1192" y="1296" type="line"/>
      <point x="1192" y="868" type="line"/>
      <point x="1843" y="868" type="line"/>
      <point x="1842" y="696" type="line"/>
      <point x="1192" y="696" type="line"/>
      <point x="1192" y="168" type="line"/>
      <point x="2015" y="168" type="line"/>
      <point x="2015" y="0" type="line"/>
      <point x="974" y="0" type="line"/>
      <point x="974" y="369" type="line"/>
      <point x="410" y="369" type="line"/>
      <point x="193" y="0" type="line"/>
    </contour>
  </outline>
</glyph>
<glyph name="Eth" format="1">
  <advance width="1444"/>
  <unicode hex="00D0"/>
  <outline>
    <component base="D"/>
    <contour>
      <point x="0" y="681" type="line"/>
      <point x="0" y="808" type="line"/>
      <point x="570" y="808" type="line"/>
      <point x="570" y="681" type="line"/>
    </contour>
  </outline>
</glyph>
<glyph name="Oslash" format="1">
  <advance width="1497"/>
  <unicode hex="00D8"/>
  <outline>
    <component base="O"/>
    <contour>
      <point x="1252" y="1604" type="line"/>
      <point x="362" y="-214" type="line"/>
      <point x="235" y="-148" type="line"/>
      <point x="1126" y="1670" type="line"/>
    </contour>
  </outline>
</glyph>
<glyph name="ae" format="1">
  <advance width="1667"/>
  <unicode hex="00E6"/>
  <outline>
    <contour>
      <point x="128" y="932" type="line"/>
      <point x="242" y="1011"/>
      <point x="366" y="1047"/>
      <point x="518" y="1047" type="curve" smooth="yes"/>
      <point x="654" y="1047"/>
      <point x="846" y="1000"/>
      <point x="864" y="778" type="curve"/>
      <point x="818" y="779" type="line"/>
      <point x="870" y="971"/>
      <point x="1029" y="1047"/>
      <point x="1191" y="1047" type="curve" smooth="yes"/>
      <point x="1476" y="1047"/>
      <point x="1597" y="844"/>
      <point x="1597" y="572" type="curve" smooth="yes"/>
      <point x="1597" y="563"/>
      <point x="1596" y="505"/>
      <point x="1594" y="488" type="curve"/>
      <point x="866" y="475" type="line"/>
      <point x="932" y="524" type="line"/>
      <point x="932" y="264"/>
      <point x="992" y="135"/>
      <point x="1191" y="133" type="curve" smooth="yes"/>
      <point x="1334" y="132"/>
      <point x="1399" y="240"/>
      <point x="1422" y="293" type="curve"/>
      <point x="1570" y="234" type="line"/>
      <point x="1515" y="83"/>
      <point x="1369" y="-22"/>
      <point x="1195" y="-24" type="curve"/>
      <point x="999" y="-24"/>
      <point x="839" y="55"/>
      <point x="797" y="268" type="curve"/>
      <point x="872" y="268" type="line"/>
      <point x="773" y="32"/>
      <point x="616" y="-24"/>
      <point x="429" y="-24" type="curve" smooth="yes"/>
      <point x="254" y="-24"/>
      <point x="86" y="53"/>
      <point x="74" y="246" type="curve" smooth="yes"/>
      <point x="58" y="500"/>
      <point x="255" y="602"/>
      <point x="600" y="608" type="curve" smooth="yes"/>
      <point x="788" y="611" type="line"/>
      <point x="720" y="542" type="line"/>
      <point x="720" y="765"/>
      <point x="708" y="873"/>
      <point x="533" y="890" type="curve" smooth="yes"/>
      <point x="411" y="902"/>
      <point x="298" y="855"/>
      <point x="211" y="799" type="curve"/>
    </contour>
    <contour>
      <point x="721" y="368" type="curve" smooth="yes"/>
      <point x="721" y="523" type="line"/>
      <point x="787" y="462" type="line"/>
      <point x="620" y="458" type="line" smooth="yes"/>
      <point x="401" y="453"/>
      <point x="272" y="398"/>
      <point x="288" y="251" type="curve" smooth="yes"/>
      <point x="296" y="182"/>
      <point x="348" y="137"/>
      <point x="444" y="132" type="curve" smooth="yes"/>
      <point x="599" y="124"/>
      <point x="721" y="208"/>
    </contour>
    <contour>
      <point x="1409" y="546" type="line"/>
      <point x="1409" y="752"/>
      <point x="1368" y="891"/>
      <point x="1187" y="891" type="curve" smooth="yes"/>
      <point x="1003" y="891"/>
      <point x="933" y="730"/>
      <point x="933" y="562" type="curve"/>
      <point x="866" y="615" type="line"/>
      <point x="1486" y="627" type="line"/>
    </contour>
  </outline>
</glyph>
<glyph name="eth" format="1">
  <advance width="1053"/>
  <unicode hex="00F0"/>
  <outline>
    <contour>
      <point x="860" y="1424" type="line"/>
      <point x="938" y="1314" type="line"/>
      <point x="452" y="997" type="line"/>
      <point x="374" y="1107" type="line"/>
    </contour>
    <contour>
      <point x="169" y="1293" type="curve"/>
      <point x="169" y="1432" type="line"/>
      <point x="799" y="1432"/>
      <point x="991" y="967"/>
      <point x="991" y="529" type="curve" smooth="yes"/>
      <point x="991" y="213"/>
      <point x="847" y="-27"/>
      <point x="518" y="-24" type="curve" smooth="yes"/>
      <point x="219" y="-21"/>
      <point x="64" y="208"/>
      <point x="64" y="454" type="curve" smooth="yes"/>
      <point x="64" y="746"/>
      <point x="282" y="908"/>
      <point x="503" y="908" type="curve" smooth="yes"/>
      <point x="611" y="908"/>
      <point x="711" y="864"/>
      <point x="776" y="774" type="curve"/>
      <point x="746" y="1008"/>
      <point x="566" y="1293"/>
    </contour>
    <contour>
      <point x="523" y="744" type="curve" smooth="yes"/>
      <point x="381" y="744"/>
      <point x="276" y="624"/>
      <point x="276" y="444" type="curve" smooth="yes"/>
      <point x="276" y="253"/>
      <point x="385" y="146"/>
      <point x="518" y="138" type="curve" smooth="yes"/>
      <point x="710" y="127"/>
      <point x="789" y="308"/>
      <point x="789" y="511" type="curve" smooth="yes"/>
      <point x="789" y="535"/>
      <point x="788" y="570"/>
      <point x="782" y="596" type="curve"/>
      <point x="690" y="697"/>
      <point x="619" y="744"/>
    </contour>
  </outline>
</glyph>
<glyph name="thorn" format="1">
  <advance width="1058"/>
  <unicode hex="00FE"/>
  <outline>
    <contour>
      <point x="571" y="128" type="curve" smooth="yes"/>
      <point x="407" y="128"/>
      <point x="297" y="230"/>
      <point x="294" y="519" type="curve" smooth="yes"/>
      <point x="291" y="816"/>
      <point x="426" y="897"/>
      <point x="557" y="895" type="curve" smooth="yes"/>
      <point x="690" y="893"/>
      <point x="796" y="780"/>
      <point x="796" y="521" type="curve" smooth="yes"/>
      <point x="796" y="293"/>
      <point x="736" y="128"/>
    </contour>
    <contour>
      <point x="82" y="1464" type="line"/>
      <point x="82" y="-394" type="line"/>
      <point x="294" y="-372" type="line"/>
      <point x="294" y="94" type="line"/>
      <point x="351" y="34"/>
      <point x="448" y="-24"/>
      <point x="587" y="-24" type="curve" smooth="yes"/>
      <point x="853" y="-24"/>
      <point x="1014" y="217"/>
      <point x="1014" y="520" type="curve" smooth="yes"/>
      <point x="1014" y="842"/>
      <point x="866" y="1047"/>
      <point x="580" y="1047" type="curve" smooth="yes"/>
      <point x="438" y="1047"/>
      <point x="351" y="990"/>
      <point x="293" y="932" type="curve"/>
      <point x="293" y="1464" type="line"/>
    </contour>
  </outline>
</glyph>
<glyph name="dcroat" format="1">
  <advance width="1137"/>
  <unicode hex="0111"/>
  <outline>
    <component base="d"/>
    <contour>
      <point x="589" y="1176" type="line"/>
      <point x="1139" y="1176" type="line"/>
      <point x="1139" y="1304" type="line"/>
      <point x="589" y="1304" type="line"/>
    </contour>
  </outline>
</glyph>
<glyph name="Hbar" format="1">
  <advance width="1457"/>
  <unicode hex="0126"/>
  <outline>
    <component base="H" xOffset="-22.5"/>
    <contour>
      <point x="25.5" y="1144" type="line"/>
      <point x="25.5" y="1230" type="line"/>
      <point x="1431.5" y="1230" type="line"/>
      <point x="1431.5" y="1144" type="line"/>
    </contour>
  </outline>
</glyph>
<glyph name="hbar" format="1">
  <advance width="1117"/>
  <unicode hex="0127"/>
  <outline>
    <component base="h"/>
    <contour>
      <point x="-12" y="1176" type="line"/>
      <point x="538" y="1176" type="line"/>
      <point x="538" y="1304" type="line"/>
      <point x="-12" y="1304" type="line"/>
    </contour>
  </outline>
</glyph>
<glyph name="dotlessi" format="1">
  <advance width="456"/>
  <unicode hex="0131"/>
  <outline>
    <contour>
      <point x="137" y="0" type="line"/>
      <point x="137" y="1023" type="line"/>
      <point x="349" y="1023" type="line"/>
      <point x="349" y="0" type="line"/>
    </contour>
  </outline>
</glyph>
<glyph name="kgreenlandic" format="1">
  <advance width="1010"/>
  <unicode hex="0138"/>
  <outline>
    <component base="lc_main_stem"/>
    <contour>
      <point x="590" y="653" type="line"/>
      <point x="454" y="530" type="line"/>
      <point x="825" y="0" type="line"/>
      <point x="1066" y="0" type="line"/>
    </contour>
    <contour>
      <point x="767" y="1023" type="line"/>
      <point x="207" y="382" type="line"/>
      <point x="207" y="172" type="line"/>
      <point x="507" y="482" type="line"/>
      <point x="622" y="567" type="line"/>
      <point x="1011" y="1023" type="line"/>
    </contour>
  </outline>
</glyph>
<glyph name="Lslash" format="1">
  <advance width="1055"/>
  <unicode hex="0141"/>
  <outline>
    <component base="L"/>
    <contour>
      <point x="-31" y="582" type="line"/>
      <point x="-31" y="764" type="line"/>
      <point x="642" y="1024" type="line"/>
      <point x="642" y="842" type="line"/>
    </contour>
  </outline>
</glyph>
<glyph name="lslash" format="1">
  <advance width="421"/>
  <unicode hex="0142"/>
  <outline>
    <component base="l"/>
    <contour>
      <point x="-39" y="612" type="line"/>
      <point x="-39" y="787" type="line"/>
      <point x="507" y="1032" type="line"/>
      <point x="507" y="857" type="line"/>
    </contour>
  </outline>
</glyph>
<glyph name="Eng" format="1">
  <advance width="1496"/>
  <unicode hex="014A"/>
  <outline>
    <component base="N"/>
    <contour>
      <point x="1360" y="-76" type="line" smooth="yes"/>
      <point x="1360" y="-384.199"/>
      <point x="1186.41" y="-528.414"/>
      <point x="953.833" y="-528.414" type="curve" smooth="yes"/>
      <point x="822.49" y="-528.414"/>
      <point x="672.333" y="-482.423"/>
      <point x="524" y="-394" type="curve"/>
      <point x="579" y="-258" type="line"/>
      <point x="704.122" y="-325.029"/>
      <point x="843.488" y="-366.418"/>
      <point x="938.75" y="-366.418" type="curve" smooth="yes"/>
      <point x="1077.98" y="-366.418"/>
      <point x="1170" y="-281.002"/>
      <point x="1170" y="-55" type="curve" smooth="yes"/>
      <point x="1170" y="204" type="line"/>
      <point x="1360" y="204" type="line"/>
    </contour>
  </outline>
</glyph>
<glyph name="eng" format="1">
  <advance width="1111"/>
  <unicode hex="014B"/>
  <outline>
    <component base="n"/>
    <contour>
      <point x="1010" y="-76" type="curve" smooth="yes"/>
      <point x="1010" y="204" type="line"/>
      <point x="799" y="205" type="line"/>
      <point x="798" y="-52" type="line" smooth="yes"/>
      <point x="798" y="-278.002"/>
      <point x="705.984" y="-366.418"/>
      <point x="566.75" y="-366.418" type="curve" smooth="yes"/>
      <point x="471.488" y="-366.418"/>
      <point x="354.122" y="-325.03"/>
      <point x="229" y="-258" type="curve"/>
      <point x="174" y="-394" type="line"/>
      <point x="322.333" y="-482.422"/>
      <point x="472.49" y="-528.414"/>
      <point x="603.833" y="-528.414" type="curve" smooth="yes"/>
      <point x="836.414" y="-528.414"/>
      <point x="1010" y="-384.199"/>
    </contour>
  </outline>
</glyph>
<glyph name="Tbar" format="1">
  <advance width="1119"/>
  <unicode hex="0166"/>
  <outline>
    <component base="T"/>
    <contour>
      <point x="286" y="698" type="line"/>
      <point x="286" y="848" type="line"/>
      <point x="860" y="848" type="line"/>
      <point x="860" y="698" type="line"/>
    </contour>
  </outline>
</glyph>
<glyph name="tbar" format="1">
  <advance width="1119"/>
  <unicode hex="0167"/>
  <outline>
    <component base="t" xOffset="278"/>
    <contour>
      <point x="305" y="540" type="line"/>
      <point x="305" y="690" type="line"/>
      <point x="879" y="690" type="line"/>
      <point x="879" y="540" type="line"/>
    </contour>
  </outline>
</glyph>
<glyph name="dotaccent" format="1">
  <advance width="434"/>
  <unicode hex="02D9"/>
  <outline>
    <contour>
      <point x="85" y="766" type="line"/>
      <point x="345" y="766" type="line"/>
      <point x="345" y="526" type="line"/>
      <point x="85" y="526" type="line"/>
    </contour>
  </outline>
</glyph>
<glyph name="ring" format="1">
  <advance width="728"/>
  <unicode hex="02DA"/>
  <outline>
    <contour>
      <point x="365" y="1349" type="curve" smooth="yes"/>
      <point x="440" y="1349"/>
      <point x="483" y="1293"/>
      <point x="483" y="1219" type="curve" smooth="yes"/>
      <point x="483" y="1145"/>
      <point x="440" y="1089"/>
      <point x="365" y="1089" type="curve" smooth="yes"/>
      <point x="290" y="1089"/>
      <point x="247" y="1145"/>
      <point x="247" y="1219" type="curve" smooth="yes"/>
      <point x="247" y="1293"/>
      <point x="290" y="1349"/>
    </contour>
    <contour>
      <point x="365" y="964" type="curve" smooth="yes"/>
      <point x="533" y="964"/>
      <point x="627" y="1086"/>
      <point x="627" y="1219" type="curve" smooth="yes"/>
      <point x="627" y="1352"/>
      <point x="533" y="1474"/>
      <point x="365" y="1474" type="curve" smooth="yes"/>
      <point x="197" y="1474"/>
      <point x="103" y="1352"/>
      <point x="103" y="1219" type="curve" smooth="yes"/>
      <point x="103" y="1086"/>
      <point x="197" y="964"/>
    </contour>
  </outline>
</glyph>
<glyph name="ogonek" format="1">
  <advance width="462"/>
  <unicode hex="02DB"/>
  <outline>
    <contour>
      <point x="355" y="0" type="line"/>
      <point x="320" y="-82"/>
      <point x="292" y="-144"/>
      <point x="292" y="-202" type="curve" smooth="yes"/>
      <point x="292" y="-247"/>
      <point x="313" y="-279"/>
      <point x="396" y="-260" type="curve"/>
      <point x="396" y="-379" type="line"/>
      <point x="195" y="-427"/>
      <point x="117" y="-321"/>
      <point x="117" y="-241" type="curve" smooth="yes"/>
      <point x="117" y="-153"/>
      <point x="191" y="-68"/>
      <point x="254" y="0" type="curve"/>
    </contour>
  </outline>
</glyph>
<glyph name="acutecomb" format="1">
  <advance width="496"/>
  <unicode hex="0301"/>
  <outline>
    <contour>
      <point x="487" y="1492" type="line"/>
      <point x="136" y="1172" type="line"/>
      <point x="-5" y="1172" type="line"/>
      <point x="197" y="1492" type="line"/>
    </contour>
  </outline>
</glyph>
<glyph name="uni0302" format="1">
  <advance width="838"/>
  <unicode hex="0302"/>
  <outline>
    <contour>
      <point x="297" y="1492" type="line"/>
      <point x="552" y="1492" type="line"/>
      <point x="707" y="1172" type="line"/>
      <point x="565" y="1172" type="line"/>
      <point x="424" y="1390" type="line"/>
      <point x="284" y="1172" type="line"/>
      <point x="142" y="1172" type="line"/>
    </contour>
  </outline>
</glyph>
<glyph name="tildecomb" format="1">
  <advance width="798"/>
  <unicode hex="0303"/>
  <outline>
    <contour>
      <point x="283" y="1248" type="curve"/>
      <point x="339" y="1244"/>
      <point x="446" y="1167"/>
      <point x="580" y="1152" type="curve" smooth="yes"/>
      <point x="672" y="1142"/>
      <point x="705" y="1251"/>
      <point x="693" y="1395" type="curve"/>
      <point x="562" y="1395" type="line"/>
      <point x="562" y="1336"/>
      <point x="550" y="1299"/>
      <point x="523" y="1299" type="curve" smooth="yes"/>
      <point x="473" y="1299"/>
      <point x="344" y="1385"/>
      <point x="236" y="1401" type="curve" smooth="yes"/>
      <point x="155" y="1413"/>
      <point x="84" y="1336"/>
      <point x="107" y="1160" type="curve"/>
      <point x="237" y="1160" type="line"/>
      <point x="237" y="1220"/>
      <point x="259" y="1248"/>
    </contour>
  </outline>
</glyph>
<glyph name="uni0304" format="1">
  <advance width="724"/>
  <unicode hex="0304"/>
  <outline>
    <contour>
      <point x="135" y="1179" type="line"/>
      <point x="135" y="1329" type="line"/>
      <point x="589" y="1329" type="line"/>
      <point x="589" y="1179" type="line"/>
    </contour>
  </outline>
</glyph>
<glyph name="uni0308" format="1">
  <advance width="860"/>
  <unicode hex="0308"/>
  <outline>
    <contour>
      <point x="750" y="1395" type="line"/>
      <point x="750" y="1161" type="line"/>
      <point x="514" y="1161" type="line"/>
      <point x="514" y="1395" type="line"/>
    </contour>
    <contour>
      <point x="65" y="1395" type="line"/>
      <point x="301" y="1395" type="line"/>
      <point x="301" y="1161" type="line"/>
      <point x="65" y="1161" type="line"/>
    </contour>
  </outline>
</glyph>
<glyph name="uni030C" format="1">
  <advance width="838"/>
  <unicode hex="030C"/>
  <outline>
    <contour>
      <point x="297" y="1172" type="line"/>
      <point x="142" y="1492" type="line"/>
      <point x="284" y="1492" type="line"/>
      <point x="424" y="1274" type="line"/>
      <point x="565" y="1492" type="line"/>
      <point x="707" y="1492" type="line"/>
      <point x="552" y="1172" type="line"/>
    </contour>
  </outline>
</glyph>
<glyph name="uni030F" format="1">
  <advance width="745"/>
  <unicode hex="030F"/>
  <outline>
    <contour>
      <point x="690" y="1492" type="line"/>
      <point x="755" y="1152" type="line"/>
      <point x="657" y="1152" type="line"/>
      <point x="411" y="1492" type="line"/>
    </contour>
    <contour>
      <point x="335" y="1492" type="line"/>
      <point x="427" y="1152" type="line"/>
      <point x="319" y="1152" type="line"/>
      <point x="47" y="1492" type="line"/>
    </contour>
  </outline>
</glyph>
<glyph name="uni0326" format="1">
  <advance width="409"/>
  <unicode hex="0326"/>
  <outline>
    <contour>
      <point x="76" y="0" type="line"/>
      <point x="346" y="0" type="line"/>
      <point x="346" y="-145" type="line" smooth="yes"/>
      <point x="346" y="-343"/>
      <point x="315" y="-454"/>
      <point x="173" y="-535" type="curve"/>
      <point x="102" y="-443" type="line"/>
      <point x="135" y="-412"/>
      <point x="195" y="-332"/>
      <point x="195" y="-253" type="curve"/>
      <point x="76" y="-240" type="line"/>
    </contour>
  </outline>
</glyph>
<glyph name="quotesinglbase" format="1">
  <advance width="436"/>
  <unicode hex="201A"/>
  <outline>
    <contour>
      <point x="128" y="-81" type="curve" smooth="yes"/>
      <point x="128" y="93" type="line"/>
      <point x="320" y="93" type="line"/>
      <point x="316" y="-87"/>
      <point x="319" y="-269"/>
      <point x="159" y="-382" type="curve"/>
      <point x="110" y="-319" type="line"/>
      <point x="135" y="-296"/>
      <point x="186" y="-219"/>
      <point x="189" y="-99" type="curve"/>
      <point x="189" y="-99"/>
      <point x="128" y="-82"/>
    </contour>
  </outline>
</glyph>
<glyph name="Euro" format="1">
  <advance width="1275"/>
  <unicode hex="20AC"/>
  <outline>
    <component base="C"/>
    <contour>
      <point x="680" y="783" type="line"/>
      <point x="680" y="927" type="line"/>
      <point x="-54" y="927" type="line"/>
      <point x="-54" y="783" type="line"/>
    </contour>
    <contour>
      <point x="680" y="525" type="line"/>
      <point x="680" y="669" type="line"/>
      <point x="-54" y="669" type="line"/>
      <point x="-54" y="525" type="line"/>
    </contour>
  </outline>
</glyph>
<glyph name="trademark" format="1">
  <advance width="1847"/>
  <unicode hex="2122"/>
  <outline>
    <contour>
      <point x="116" y="1341" type="line"/>
      <point x="116" y="1464" type="line"/>
      <point x="757" y="1464" type="line"/>
      <point x="757" y="1341" type="line"/>
      <point x="518" y="1341" type="line"/>
      <point x="518" y="615" type="line"/>
      <point x="352" y="615" type="line"/>
      <point x="352" y="1341" type="line"/>
    </contour>
    <contour>
      <point x="912" y="615" type="line"/>
      <point x="912" y="1464" type="line"/>
      <point x="1111" y="1464" type="line"/>
      <point x="1335" y="945" type="line"/>
      <point x="1557" y="1463" type="line"/>
      <point x="1744" y="1463" type="line"/>
      <point x="1744" y="615" type="line"/>
      <point x="1593" y="615" type="line"/>
      <point x="1593" y="1185" type="line"/>
      <point x="1398" y="731" type="line"/>
      <point x="1262" y="731" type="line"/>
      <point x="1069" y="1188" type="line"/>
      <point x="1069" y="615" type="line"/>
    </contour>
  </outline>
</glyph>
<glyph name="minus" format="1">
  <advance width="1024"/>
  <unicode hex="2212"/>
  <outline>
    <contour>
      <point x="803" y="656" type="line"/>
      <point x="803" y="780" type="line"/>
      <point x="135" y="780" type="line"/>
      <point x="135" y="656" type="line"/>
    </contour>
  </outline>
</glyph>
<glyph name="dotlessj" format="1">
  <advance width="513"/>
  <outline>
    <contour>
      <point x="134" y="-380" type="curve" smooth="yes"/>
      <point x="323" y="-380"/>
      <point x="407" y="-304"/>
      <point x="407" y="-42" type="curve" smooth="yes"/>
      <point x="407" y="1023" type="line"/>
      <point x="195" y="1023" type="line"/>
      <point x="195" y="-91" type="line" smooth="yes"/>
      <point x="195" y="-177"/>
      <point x="155" y="-207"/>
      <point x="100" y="-207" type="curve" smooth="yes"/>
      <point x="64" y="-207"/>
      <point x="22" y="-195"/>
      <point x="-20" y="-176" type="curve"/>
      <point x="-61" y="-334" type="line"/>
      <point x="-13" y="-362"/>
      <point x="63" y="-380"/>
    </contour>
  </outline>
</glyph>
<glyph name="lc_ascender_stem" format="1">
  <advance width="1086"/>
  <outline>
    <contour>
      <point x="98" y="0" type="line"/>
      <point x="311" y="0" type="line"/>
      <point x="311" y="1474" type="line"/>
      <point x="98" y="1474" type="line"/>
    </contour>
  </outline>
</glyph>
<glyph name="lc_curved_stem" format="1">
  <advance width="1086"/>
  <outline>
    <contour>
      <point x="798" y="0" type="line"/>
      <point x="1010" y="0" type="line"/>
      <point x="1010" y="595" type="line" smooth="yes"/>
      <point x="1010" y="801"/>
      <point x="969" y="1044"/>
      <point x="646" y="1044" type="curve" smooth="yes"/>
      <point x="393" y="1044"/>
      <point x="274" y="884"/>
      <point x="224" y="624" type="curve"/>
      <point x="325" y="491" type="line"/>
      <point x="325" y="695"/>
      <point x="381" y="896"/>
      <point x="600" y="896" type="curve" smooth="yes"/>
      <point x="748" y="896"/>
      <point x="798" y="801"/>
      <point x="798" y="602" type="curve" smooth="yes"/>
    </contour>
  </outline>
</glyph>
<glyph name="lc_descender_stem" format="1">
  <advance width="1057"/>
  <outline>
    <contour>
      <point x="269" y="-370" type="line"/>
      <point x="269" y="758" type="line"/>
      <point x="243" y="1023" type="line"/>
      <point x="57" y="1023" type="line"/>
      <point x="57" y="-370" type="line"/>
    </contour>
  </outline>
</glyph>
